HIERARCHY
ROOT Hips
{
	OFFSET -345.600250 -557.180420 88.924065
	CHANNELS 6 Xposition Yposition Zposition Zrotation Yrotation Xrotation
	JOINT Spine
	{
		OFFSET 0.000000 2.080078 8.814240
		CHANNELS 6 Xposition Yposition Zposition Zrotation Yrotation Xrotation
		JOINT Spine1
		{
			OFFSET 0.000000 0.000000 8.844139
			CHANNELS 6 Xposition Yposition Zposition Zrotation Yrotation Xrotation
			JOINT Spine2
			{
				OFFSET 0.000000 0.000000 11.682266
				CHANNELS 6 Xposition Yposition Zposition Zrotation Yrotation Xrotation
				JOINT Spine3
				{
					OFFSET 0.000000 0.000000 11.746704
					CHANNELS 6 Xposition Yposition Zposition Zrotation Yrotation Xrotation
					JOINT Neck
					{
						OFFSET 0.000000 0.000000 17.658264
						CHANNELS 6 Xposition Yposition Zposition Zrotation Yrotation Xrotation
						JOINT Neck1
						{
							OFFSET 0.000000 0.000000 5.101517
							CHANNELS 6 Xposition Yposition Zposition Zrotation Yrotation Xrotation
							JOINT Head
							{
								OFFSET 0.000000 0.000000 5.101517
								CHANNELS 6 Xposition Yposition Zposition Zrotation Yrotation Xrotation
								JOINT HeadEnd
								{
									OFFSET 0.000000 0.000000 11.655090
									CHANNELS 6 Xposition Yposition Zposition Zrotation Yrotation Xrotation
									End Site
									{
										OFFSET 0.000000 0.000000 0.100006
									}
								}
							}
						}
					}
					JOINT RightShoulder
					{
						OFFSET -2.625397 0.000000 11.175217
						CHANNELS 6 Xposition Yposition Zposition Zrotation Yrotation Xrotation
						JOINT RightArm
						{
							OFFSET 0.000000 0.000000 10.434723
							CHANNELS 6 Xposition Yposition Zposition Zrotation Yrotation Xrotation
							JOINT RightForeArm
							{
								OFFSET 0.000000 0.000000 29.628418
								CHANNELS 6 Xposition Yposition Zposition Zrotation Yrotation Xrotation
								JOINT RightHand
								{
									OFFSET 0.000000 0.000000 22.857605
									CHANNELS 6 Xposition Yposition Zposition Zrotation Yrotation Xrotation
									JOINT RightHandThumb1
									{
										OFFSET -2.867310 -2.944275 3.959564
										CHANNELS 6 Xposition Yposition Zposition Zrotation Yrotation Xrotation
										JOINT RightHandThumb2
										{
											OFFSET 0.000000 0.000000 3.350403
											CHANNELS 6 Xposition Yposition Zposition Zrotation Yrotation Xrotation
											JOINT RightHandThumb3
											{
												OFFSET 0.000000 0.000000 3.756516
												CHANNELS 6 Xposition Yposition Zposition Zrotation Yrotation Xrotation
												JOINT RightHandThumb4
												{
													OFFSET 0.000000 0.000000 3.147339
													CHANNELS 6 Xposition Yposition Zposition Zrotation Yrotation Xrotation
													End Site
													{
														OFFSET 0.000000 0.000000 0.100006
													}
												}
											}
										}
									}
									JOINT RightHandIndex1
									{
										OFFSET -0.086761 -2.345276 10.030899
										CHANNELS 6 Xposition Yposition Zposition Zrotation Yrotation Xrotation
										JOINT RightHandIndex2
										{
											OFFSET 0.000000 0.000000 4.061096
											CHANNELS 6 Xposition Yposition Zposition Zrotation Yrotation Xrotation
											JOINT RightHandIndex3
											{
												OFFSET 0.000000 0.000000 3.248871
												CHANNELS 6 Xposition Yposition Zposition Zrotation Yrotation Xrotation
												JOINT RightHandIndex4
												{
													OFFSET 0.000000 0.000000 2.639709
													CHANNELS 6 Xposition Yposition Zposition Zrotation Yrotation Xrotation
													End Site
													{
														OFFSET 0.000000 0.000000 0.100006
													}
												}
											}
										}
									}
									JOINT RightHandMiddle1
									{
										OFFSET 0.104095 -0.006775 9.502945
										CHANNELS 6 Xposition Yposition Zposition Zrotation Yrotation Xrotation
										JOINT RightHandMiddle2
										{
											OFFSET 0.000000 0.000000 4.568726
											CHANNELS 6 Xposition Yposition Zposition Zrotation Yrotation Xrotation
											JOINT RightHandMiddle3
											{
												OFFSET 0.000000 0.000000 3.654984
												CHANNELS 6 Xposition Yposition Zposition Zrotation Yrotation Xrotation
												JOINT RightHandMiddle4
												{
													OFFSET 0.000000 0.000000 2.741241
													CHANNELS 6 Xposition Yposition Zposition Zrotation Yrotation Xrotation
													End Site
													{
														OFFSET 0.000000 0.000000 0.100006
													}
												}
											}
										}
									}
									JOINT RightHandRing1
									{
										OFFSET 0.086761 2.267456 8.921707
										CHANNELS 6 Xposition Yposition Zposition Zrotation Yrotation Xrotation
										JOINT RightHandRing2
										{
											OFFSET 0.000000 0.000000 4.061096
											CHANNELS 6 Xposition Yposition Zposition Zrotation Yrotation Xrotation
											JOINT RightHandRing3
											{
												OFFSET 0.000000 0.000000 3.654984
												CHANNELS 6 Xposition Yposition Zposition Zrotation Yrotation Xrotation
												JOINT RightHandRing4
												{
													OFFSET 0.000000 0.000000 2.741241
													CHANNELS 6 Xposition Yposition Zposition Zrotation Yrotation Xrotation
													End Site
													{
														OFFSET 0.000000 0.000000 0.100006
													}
												}
											}
										}
									}
									JOINT RightHandPinky1
									{
										OFFSET -0.173492 4.467224 7.976990
										CHANNELS 6 Xposition Yposition Zposition Zrotation Yrotation Xrotation
										JOINT RightHandPinky2
										{
											OFFSET 0.000000 0.000000 3.350403
											CHANNELS 6 Xposition Yposition Zposition Zrotation Yrotation Xrotation
											JOINT RightHandPinky3
											{
												OFFSET 0.000000 0.000000 2.842758
												CHANNELS 6 Xposition Yposition Zposition Zrotation Yrotation Xrotation
												JOINT RightHandPinky4
												{
													OFFSET 0.000000 0.000000 2.639709
													CHANNELS 6 Xposition Yposition Zposition Zrotation Yrotation Xrotation
													End Site
													{
														OFFSET 0.000000 0.000000 0.100006
													}
												}
											}
										}
									}
									JOINT RightForeArmEnd
									{
										OFFSET 0.000000 0.000000 0.000000
										CHANNELS 6 Xposition Yposition Zposition Zrotation Yrotation Xrotation
										End Site
										{
											OFFSET 0.000000 0.000000 0.100006
										}
									}
								}
								JOINT RightArmEnd
								{
									OFFSET 0.000000 0.000000 0.000000
									CHANNELS 6 Xposition Yposition Zposition Zrotation Yrotation Xrotation
									End Site
									{
										OFFSET 0.000000 0.000000 0.100006
									}
								}
							}
						}
					}
					JOINT LeftShoulder
					{
						OFFSET 2.625397 0.000000 11.175217
						CHANNELS 6 Xposition Yposition Zposition Zrotation Yrotation Xrotation
						JOINT LeftArm
						{
							OFFSET 0.000000 0.000000 10.813629
							CHANNELS 6 Xposition Yposition Zposition Zrotation Yrotation Xrotation
							JOINT LeftForeArm
							{
								OFFSET 0.000000 0.000000 28.724777
								CHANNELS 6 Xposition Yposition Zposition Zrotation Yrotation Xrotation
								JOINT LeftHand
								{
									OFFSET 0.644379 0.328857 25.716171
									CHANNELS 6 Xposition Yposition Zposition Zrotation Yrotation Xrotation
									JOINT LeftHandThumb1
									{
										OFFSET 2.867310 -2.944275 3.959564
										CHANNELS 6 Xposition Yposition Zposition Zrotation Yrotation Xrotation
										JOINT LeftHandThumb2
										{
											OFFSET 0.000000 0.000000 3.350403
											CHANNELS 6 Xposition Yposition Zposition Zrotation Yrotation Xrotation
											JOINT LeftHandThumb3
											{
												OFFSET 0.000000 0.000000 3.756516
												CHANNELS 6 Xposition Yposition Zposition Zrotation Yrotation Xrotation
												JOINT LeftHandThumb4
												{
													OFFSET 0.000000 0.000000 3.100006
													CHANNELS 6 Xposition Yposition Zposition Zrotation Yrotation Xrotation
													End Site
													{
														OFFSET 0.000000 0.000000 0.100006
													}
												}
											}
										}
									}
									JOINT LeftHandIndex1
									{
										OFFSET 0.086761 -2.345276 10.030899
										CHANNELS 6 Xposition Yposition Zposition Zrotation Yrotation Xrotation
										JOINT LeftHandIndex2
										{
											OFFSET 0.000000 0.000000 4.061096
											CHANNELS 6 Xposition Yposition Zposition Zrotation Yrotation Xrotation
											JOINT LeftHandIndex3
											{
												OFFSET 0.000000 0.000000 3.248871
												CHANNELS 6 Xposition Yposition Zposition Zrotation Yrotation Xrotation
												JOINT LeftHandIndex4
												{
													OFFSET 0.000000 0.000000 2.639709
													CHANNELS 6 Xposition Yposition Zposition Zrotation Yrotation Xrotation
													End Site
													{
														OFFSET 0.000000 0.000000 0.100006
													}
												}
											}
										}
									}
									JOINT LeftHandMiddle1
									{
										OFFSET -0.104095 -0.006775 9.502945
										CHANNELS 6 Xposition Yposition Zposition Zrotation Yrotation Xrotation
										JOINT LeftHandMiddle2
										{
											OFFSET 0.000000 0.000000 4.568726
											CHANNELS 6 Xposition Yposition Zposition Zrotation Yrotation Xrotation
											JOINT LeftHandMiddle3
											{
												OFFSET 0.000000 0.000000 3.654984
												CHANNELS 6 Xposition Yposition Zposition Zrotation Yrotation Xrotation
												JOINT LeftHandMiddle4
												{
													OFFSET 0.000000 0.000000 2.741241
													CHANNELS 6 Xposition Yposition Zposition Zrotation Yrotation Xrotation
													End Site
													{
														OFFSET 0.000000 0.000000 0.100006
													}
												}
											}
										}
									}
									JOINT LeftHandRing1
									{
										OFFSET -0.086761 2.267456 8.921707
										CHANNELS 6 Xposition Yposition Zposition Zrotation Yrotation Xrotation
										JOINT LeftHandRing2
										{
											OFFSET 0.000000 0.000000 4.061096
											CHANNELS 6 Xposition Yposition Zposition Zrotation Yrotation Xrotation
											JOINT LeftHandRing3
											{
												OFFSET 0.000000 0.000000 3.654984
												CHANNELS 6 Xposition Yposition Zposition Zrotation Yrotation Xrotation
												JOINT LeftHandRing4
												{
													OFFSET 0.000000 0.000000 2.741241
													CHANNELS 6 Xposition Yposition Zposition Zrotation Yrotation Xrotation
													End Site
													{
														OFFSET 0.000000 0.000000 0.100006
													}
												}
											}
										}
									}
									JOINT LeftHandPinky1
									{
										OFFSET 0.173492 4.467224 7.976990
										CHANNELS 6 Xposition Yposition Zposition Zrotation Yrotation Xrotation
										JOINT LeftHandPinky2
										{
											OFFSET 0.000000 0.000000 3.350403
											CHANNELS 6 Xposition Yposition Zposition Zrotation Yrotation Xrotation
											JOINT LeftHandPinky3
											{
												OFFSET 0.000000 0.000000 2.842758
												CHANNELS 6 Xposition Yposition Zposition Zrotation Yrotation Xrotation
												JOINT LeftHandPinky4
												{
													OFFSET 0.000000 0.000000 2.639709
													CHANNELS 6 Xposition Yposition Zposition Zrotation Yrotation Xrotation
													End Site
													{
														OFFSET 0.000000 0.000000 0.100006
													}
												}
											}
										}
									}
									JOINT LeftForeArmEnd
									{
										OFFSET 0.000000 0.000000 0.000000
										CHANNELS 6 Xposition Yposition Zposition Zrotation Yrotation Xrotation
										End Site
										{
											OFFSET 0.000000 0.000000 0.100006
										}
									}
								}
								JOINT LeftArmEnd
								{
									OFFSET 0.000000 0.000000 0.000000
									CHANNELS 6 Xposition Yposition Zposition Zrotation Yrotation Xrotation
									End Site
									{
										OFFSET 0.000000 0.000000 0.100006
									}
								}
							}
						}
					}
				}
			}
		}
	}
	JOINT RightUpLeg
	{
		OFFSET -11.289948 0.000000 0.000000
		CHANNELS 6 Xposition Yposition Zposition Zrotation Yrotation Xrotation
		JOINT RightLeg
		{
			OFFSET 0.000000 0.000000 -38.200329
			CHANNELS 6 Xposition Yposition Zposition Zrotation Yrotation Xrotation
			JOINT RightFoot
			{
				OFFSET 0.000000 0.000000 -39.900856
				CHANNELS 6 Xposition Yposition Zposition Zrotation Yrotation Xrotation
				JOINT RightToeBase
				{
					OFFSET 0.000000 -15.261658 0.000001
					CHANNELS 6 Xposition Yposition Zposition Zrotation Yrotation Xrotation
					JOINT RightToeBaseEnd
					{
						OFFSET 0.000000 -7.370728 0.000001
						CHANNELS 6 Xposition Yposition Zposition Zrotation Yrotation Xrotation
						End Site
						{
							OFFSET 0.000000 0.000000 0.100000
						}
					}
				}
				JOINT RightLegEnd
				{
					OFFSET 0.000000 0.000000 0.000000
					CHANNELS 6 Xposition Yposition Zposition Zrotation Yrotation Xrotation
					End Site
					{
						OFFSET 0.000000 0.000000 0.100000
					}
				}
			}
			JOINT RightUpLegEnd
			{
				OFFSET 0.000000 0.000000 0.000000
				CHANNELS 6 Xposition Yposition Zposition Zrotation Yrotation Xrotation
				End Site
				{
					OFFSET 0.000000 0.000000 0.099998
				}
			}
		}
	}
	JOINT LeftUpLeg
	{
		OFFSET 11.315674 0.000000 0.000000
		CHANNELS 6 Xposition Yposition Zposition Zrotation Yrotation Xrotation
		JOINT LeftLeg
		{
			OFFSET 0.000000 0.000000 -38.200329
			CHANNELS 6 Xposition Yposition Zposition Zrotation Yrotation Xrotation
			JOINT LeftFoot
			{
				OFFSET 0.000000 0.000000 -39.900856
				CHANNELS 6 Xposition Yposition Zposition Zrotation Yrotation Xrotation
				JOINT LeftToeBase
				{
					OFFSET 0.000000 -15.261658 0.000001
					CHANNELS 6 Xposition Yposition Zposition Zrotation Yrotation Xrotation
					JOINT LeftToeBaseEnd
					{
						OFFSET 0.000000 -7.539978 0.000001
						CHANNELS 6 Xposition Yposition Zposition Zrotation Yrotation Xrotation
						End Site
						{
							OFFSET 0.000000 0.000000 0.100000
						}
					}
				}
				JOINT LeftLegEnd
				{
					OFFSET 0.000000 0.000000 0.000000
					CHANNELS 6 Xposition Yposition Zposition Zrotation Yrotation Xrotation
					End Site
					{
						OFFSET 0.000000 0.000000 0.100000
					}
				}
			}
			JOINT LeftUpLegEnd
			{
				OFFSET 0.000000 0.000000 0.000000
				CHANNELS 6 Xposition Yposition Zposition Zrotation Yrotation Xrotation
				End Site
				{
					OFFSET 0.000000 0.000000 0.099998
				}
			}
		}
	}
}
MOTION
Frames: 2
Frame Time: 0.016667
-3.197601 -13.756226 83.260780 0.120406 5.150894 -30.167668 0.000004 2.080099 8.814265 0.703830 -0.353723 11.132495 0.000009 -0.000006 8.844145 0.514668 0.650093 3.540416 -0.000001 -0.000013 11.682266 2.600952 2.903363 12.315781 -0.000001 -0.000007 11.746682 1.333889 2.585516 8.268868 -0.000013 -0.000015 17.658260 -5.110124 -9.818241 13.679370 -0.000028 0.000062 5.101530 -0.969626 -1.098640 -1.423379 0.000007 0.000063 5.101515 -0.369803 -1.326890 -15.671248 -0.000002 -0.000001 11.655046 0.000000 -0.000000 -0.000000 -2.625396 -0.000022 11.175200 23.883266 -90.048073 -4.415146 0.000000 0.000000 10.434731 -52.261568 -20.704856 63.788974 0.000000 0.000015 29.628395 15.626242 -0.211178 40.496410 0.000029 -0.000044 22.857594 -3.328008 -7.426027 0.647647 -2.867386 -2.944305 3.959534 31.555590 -17.972456 50.443624 -0.000046 0.000015 3.350403 -14.241454 9.016060 -25.485854 -0.000019 0.000008 3.756500 -9.455649 6.949521 -17.426937 -0.000030 0.000004 3.147330 -0.000001 0.000001 0.000001 -0.086723 -2.345274 10.030899 -12.683435 -19.045438 11.803054 0.000013 -0.000009 4.061077 0.235572 -14.484227 2.080582 0.000017 -0.000043 3.248867 -0.264406 -14.484241 2.080581 -0.000012 -0.000002 2.639714 0.000001 0.000001 0.000002 0.104134 -0.006784 9.502945 -7.121907 -18.426515 8.480510 -0.000012 0.000012 4.568752 0.415586 -13.428646 0.716972 0.000002 0.000012 3.654991 -0.084405 -13.428406 0.716957 -0.000007 -0.000002 2.741228 0.000001 -0.000002 0.000000 0.086788 2.267460 8.921707 1.308375 -19.196364 5.773820 0.000004 -0.000068 4.061131 -0.903970 -13.262575 -0.826007 -0.000017 -0.000086 3.655010 0.096033 -13.262559 -0.826010 -0.000037 0.000005 2.741244 -0.000001 -0.000000 -0.000000 -0.173531 4.467203 7.976988 10.442208 -18.324102 1.092032 0.000004 -0.000064 3.350405 -1.739158 -12.278402 -2.424618 -0.000048 -0.000079 2.842787 0.260815 -12.278400 -2.424623 0.000003 -0.000060 2.639684 -0.000000 -0.000001 -0.000001 0.000000 -0.000006 -0.000026 -0.000000 -0.000001 0.000002 0.000001 -0.000012 0.000010 0.000001 0.000001 -0.000001 2.625395 -0.000019 11.175212 -15.303544 87.082897 -0.573927 0.000004 0.000019 10.813622 36.954937 46.475537 49.744865 -0.000009 -0.000019 28.724779 -1.602904 0.365459 41.721797 0.644354 0.328865 25.716148 -15.251259 3.422045 -17.589049 2.867207 -2.944260 3.959534 -31.623912 17.268301 51.506586 -0.000011 -0.000053 3.350471 12.679418 -8.429119 -22.889731 -0.000034 -0.000019 3.756489 8.440154 -6.403176 -15.670542 -0.000026 -0.000002 3.100003 0.000000 -0.000000 -0.000001 0.086708 -2.345279 10.030926 -6.032359 14.780941 -4.295370 -0.000019 -0.000013 4.061112 0.356505 10.736776 -1.527034 -0.000030 0.000000 3.248905 -0.143513 10.736715 -1.527057 -0.000032 -0.000017 2.639695 0.000003 0.000001 0.000000 -0.104123 -0.006788 9.502972 -1.081412 13.806380 -3.535362 -0.000064 0.000015 4.568708 0.454279 9.937600 -0.526114 -0.000035 -0.000005 3.654981 -0.045346 9.937632 -0.526031 -0.000042 0.000003 2.741244 -0.000001 -0.000002 -0.000001 -0.086803 2.267431 8.921724 7.312052 14.916092 -1.559953 -0.000070 0.000007 4.061128 -0.940705 10.465918 0.647347 -0.000032 0.000015 3.654999 0.059292 10.465829 0.647348 -0.000035 -0.000005 2.741266 0.000002 0.000000 0.000001 0.173473 4.467215 7.976995 16.036051 14.702792 0.588613 -0.000023 -0.000066 3.350418 -1.825214 10.083851 1.980964 0.000002 -0.000087 2.842785 0.174799 10.083699 1.980967 -0.000037 0.000001 2.639725 0.000002 0.000000 0.000003 -0.000016 -0.000001 -0.000017 0.000002 0.000000 -0.000003 0.000004 -0.000029 0.000001 -0.000004 0.000001 0.000001 -11.289951 0.000026 0.000019 12.721716 5.908751 3.874343 -0.000011 0.000069 -38.200256 0.316734 -0.390011 50.826996 0.000018 0.000055 -39.900856 -16.652305 1.336055 35.274201 -0.000004 -15.261610 -0.000028 1.934313 -6.991915 -36.863286 -0.000005 -7.370728 0.000002 0.000000 0.000001 -0.000002 -0.000014 -0.000068 -0.000001 0.000001 0.000002 0.000004 -0.000007 0.000062 0.000001 -0.000000 -0.000003 -0.000001 11.315703 -0.000086 -0.000017 -6.886487 0.545927 15.853264 0.000018 0.000055 -38.200314 -0.498524 0.481444 44.000912 -0.000004 0.000004 -39.900864 18.857925 0.236695 -5.065194 -0.000025 -15.261630 0.000022 -0.211936 -0.470939 -15.089488 0.000000 -7.539913 -0.000000 -0.000001 -0.000000 -0.000000 -0.000030 -0.000060 0.000001 -0.000000 0.000000 -0.000001 0.000023 0.000001 -0.000008 -0.000000 0.000000 0.000000 
-3.078156 -14.005981 82.964691 -0.376324 5.162345 -31.205683 -0.000001 2.080098 8.814257 0.729488 -0.118875 11.105063 -0.000003 -0.000029 8.844143 0.567371 0.881570 3.507031 0.000011 0.000021 11.682255 2.530510 2.842817 12.858164 -0.000012 0.000015 11.746692 1.221009 1.971471 8.401677 -0.000011 0.000027 17.658249 -6.691655 -14.095870 14.487719 -0.000002 0.000006 5.101526 -0.912276 -1.457480 -1.548336 -0.000010 0.000000 5.101495 -0.148557 -1.706049 -15.963259 -0.000001 -0.000000 11.655063 0.000000 0.000001 -0.000000 -2.625404 -0.000006 11.175235 19.361059 -90.525169 0.152248 -0.000008 0.000000 10.434750 -51.343816 -20.140461 63.360687 0.000004 -0.000015 29.628416 14.917446 -0.209123 39.343426 0.000032 0.000007 22.857565 -3.380832 -9.687247 0.608651 -2.867340 -2.944290 3.959480 31.530206 -18.328316 49.913981 -0.000053 0.000031 3.350418 -15.033118 9.283058 -26.791378 -0.000092 -0.000004 3.756523 -9.970013 7.211240 -18.309599 -0.000039 -0.000004 3.147332 0.000001 0.000001 -0.000000 -0.086769 -2.345274 10.030876 -13.171204 -20.884574 12.583063 -0.000036 -0.000033 4.061094 0.181808 -15.845475 2.286136 -0.000008 -0.000029 3.248865 -0.318191 -15.845607 2.286114 0.000007 -0.000001 2.639718 -0.000001 -0.000000 -0.000001 0.104092 -0.006794 9.502914 -7.488881 -20.073357 8.829195 0.000006 0.000016 4.568730 0.399636 -14.612263 0.782868 -0.000020 0.000020 3.654993 -0.100390 -14.612450 0.782881 -0.000008 0.000001 2.741236 -0.000000 0.000002 0.000000 0.086742 2.267424 8.921696 1.106898 -20.386380 5.623856 0.000002 -0.000035 4.061090 -0.890904 -14.113803 -0.881148 0.000001 -0.000051 3.654988 0.109073 -14.113744 -0.881164 -0.000032 0.000002 2.741238 0.000000 0.000000 0.000000 -0.173538 4.467245 7.976983 10.357062 -18.981442 0.607168 -0.000046 -0.000039 3.350430 -1.716025 -12.800199 -2.531176 0.000009 -0.000056 2.842754 0.283962 -12.800197 -2.531185 -0.000005 -0.000057 2.639713 0.000000 -0.000002 -0.000001 -0.000005 0.000005 -0.000039 0.000001 -0.000001 -0.000001 0.000026 0.000004 -0.000004 -0.000001 0.000000 -0.000001 2.625380 0.000029 11.175195 -15.437573 87.311230 -0.609164 -0.000002 0.000027 10.813614 37.002048 45.985580 49.671916 0.000035 0.000013 28.724749 -2.686555 0.373382 42.878862 0.644365 0.328880 25.716143 -18.941219 3.747604 -15.781425 2.867306 -2.944305 3.959496 -31.604569 17.443473 51.240434 -0.000004 -0.000092 3.350464 13.067171 -8.582391 -23.536907 -0.000034 -0.000011 3.756500 8.692292 -6.542703 -16.108516 -0.000029 0.000005 3.100000 -0.000000 0.000000 -0.000001 0.086727 -2.345310 10.030930 -5.938721 15.598351 -3.517185 -0.000038 0.000022 4.061115 0.342942 11.224825 -1.598245 -0.000042 0.000026 3.248851 -0.157075 11.224815 -1.598254 -0.000041 0.000007 2.639728 -0.000002 0.000002 0.000001 -0.104135 -0.006745 9.502956 -0.950219 14.658477 -2.444285 -0.000022 0.000021 4.568718 0.448627 10.494571 -0.556301 -0.000024 -0.000007 3.655019 -0.051078 10.494565 -0.556240 -0.000030 0.000015 2.741263 -0.000003 -0.000005 -0.000002 -0.086830 2.267446 8.921705 7.521071 15.783565 -0.108146 -0.000048 0.000027 4.061138 -0.932467 11.160813 0.691403 -0.000023 -0.000024 3.655025 0.067555 11.160810 0.691404 -0.000042 -0.000010 2.741261 0.000001 0.000001 -0.000001 0.173450 4.467243 7.976959 16.312399 15.501256 2.140276 -0.000010 -0.000037 3.350445 -1.796457 10.869324 2.139004 -0.000018 -0.000066 2.842760 0.203507 10.869321 2.138982 0.000008 0.000005 2.639696 -0.000001 -0.000002 0.000000 -0.000021 0.000002 -0.000010 -0.000001 0.000002 -0.000001 -0.000010 -0.000032 -0.000001 -0.000004 0.000002 -0.000000 -11.289948 0.000064 0.000019 11.811339 6.192764 4.017025 -0.000016 0.000090 -38.200275 0.307880 -0.394811 52.051533 0.000008 0.000020 -39.900795 -16.570937 1.215113 35.220803 0.000018 -15.261620 0.000020 1.932923 -7.030389 -36.687688 0.000030 -7.370728 0.000001 0.000000 -0.000001 -0.000001 0.000004 -0.000079 0.000001 0.000003 0.000001 0.000004 0.000007 0.000056 -0.000003 0.000000 -0.000001 -0.000003 11.315710 0.000013 0.000011 -6.052366 0.221692 16.660940 0.000022 0.000043 -38.200298 -0.441254 0.441310 45.002914 -0.000047 0.000011 -39.900856 18.494556 0.239018 -5.897202 -0.000028 -15.261638 -0.000004 -0.245985 -0.511191 -14.578429 -0.000025 -7.539917 -0.000000 -0.000000 -0.000000 -0.000001 -0.000018 -0.000002 0.000002 0.000000 -0.000000 0.000001 0.000005 -0.000004 -0.000000 0.000000 0.000000 0.000003 
